#!OML:ASF X:\für Bonn\!DataBase\2005_08_11_Bastian_Final\c3d\Bastian.ASF
:FULLY-SPECIFIED
:DEGREES
141
root 0.0267749 13.6585 20.7743 -916.925 -36.8912 -168.456
lowerback 70.5951 4.54338 1.99773
upperback 20.4934 -5.82127 -1.34073
thorax 2.02154 -6.73465 -0.325522
lowerneck -9.14328 -11.6136 -11.8621
upperneck -26.0952 -14.4162 26.9203
head -2.93986 -9.87864 10.4331
rclavicle -2.22639e-014 1.11319e-013
rhumerus 2.88456 15.7396 -68.668
rradius 58.0398
rwrist -1.78674
rhand -15.4888 6.99872
rfingers 7.12502
rthumb 10.6933 -22.7092
lclavicle -2.22639e-014 1.11319e-013
lhumerus 15.1248 -3.25813 49.4161
lradius 19.7781
lwrist 20.4513
lhand -21.9753 -7.38953
lfingers 7.12502
lthumb 4.43265 22.5441
rfemur -44.4998 -21.8895 32.8206
rtibia 86.3792
rfoot -26.2228 -13.3045
rtoes 1.91004
lfemur -52.8139 2.83543 -16.4274
ltibia 78.1808
lfoot -7.81157 -14.2968
ltoes -3.6571
142
root 0.0170676 13.5177 20.779 -917.036 -36.8006 -168.257
lowerback 70.9116 4.57528 2.0041
upperback 20.4689 -5.85704 -1.37615
thorax 2.016 -6.76267 -0.354836
lowerneck -9.23435 -11.5934 -11.8411
upperneck -26.0463 -14.3707 27.1197
head -2.89437 -9.87603 10.4882
rclavicle -2.54444e-014 -5.96354e-014
rhumerus 2.99107 15.7215 -68.4127
rradius 57.9407
rwrist -1.76851
rhand -15.3613 7.06295
rfingers 7.12502
rthumb 10.8163 -22.6385
lclavicle -2.54444e-014 -5.96354e-014
lhumerus 15.424 -2.3053 49.2846
lradius 19.3536
lwrist 20.0963
lhand -22.1346 -7.42602
lfingers 7.12502
lthumb 4.27879 22.5107
rfemur -45.4373 -22.02 33.0802
rtibia 87.8847
rfoot -26.8069 -13.3122
rtoes 1.81945
lfemur -53.9365 3.04121 -16.3713
ltibia 79.7999
lfoot -8.19095 -14.4505
ltoes -3.12298
143
root 0.00714185 13.3749 20.7855 -917.157 -36.7073 -168.105
lowerback 71.2729 4.61262 1.99179
upperback 20.4151 -5.89627 -1.42571
thorax 1.97956 -6.79057 -0.387851
lowerneck -9.30025 -11.5758 -11.7644
upperneck -25.9884 -14.3351 27.2983
head -2.85582 -9.88055 10.5277
rclavicle 7.63333e-014 -2.3059e-014
rhumerus 3.05228 15.7248 -68.1674
rradius 57.8415
rwrist -1.7665
rhand -15.2443 7.06422
rfingers 7.12502
rthumb 10.9291 -22.6313
lclavicle 7.63333e-014 -2.3059e-014
lhumerus 15.6724 -1.38712 49.1567
lradius 18.9555
lwrist 19.7316
lhand -22.2542 -7.32663
lfingers 7.12502
lthumb 4.16326 22.6124
rfemur -46.3533 -22.1616 33.2853
rtibia 89.3915
rfoot -27.3747 -13.2961
rtoes 1.78048
lfemur -55.0133 3.24912 -16.3573
ltibia 81.3969
lfoot -8.57072 -14.6228
ltoes -2.53275
144
root -0.00469066 13.2309 20.7921 -917.285 -36.6152 -167.959
lowerback 71.6277 4.64431 1.97432
upperback 20.3627 -5.94616 -1.4763
thorax 1.94513 -6.82411 -0.416512
lowerneck -9.42081 -11.554 -11.6829
upperneck -25.8847 -14.298 27.4635
head -2.79731 -9.87715 10.5538
rclavicle -5.725e-014 -7.196e-014
rhumerus 3.15312 15.7632 -67.8979
rradius 57.7026
rwrist -1.76792
rhand -15.1492 7.06163
rfingers 7.12502
rthumb 11.0209 -22.6291
lclavicle -5.725e-014 -7.196e-014
lhumerus 15.8917 -0.582956 48.9681
lradius 18.5862
lwrist 19.5371
lhand -22.3565 -7.17423
lfingers 7.12502
lthumb 4.06453 22.7667
rfemur -47.2478 -22.3396 33.4721
rtibia 90.8812
rfoot -27.9277 -13.2664
rtoes 1.67955
lfemur -56.0793 3.4669 -16.3712
ltibia 82.9725
lfoot -8.91378 -14.7817
ltoes -1.85225
